<?xml version="1.0" encoding="UTF-8"?>
<svg id="Layer_2" data-name="Layer 2" xmlns="http://www.w3.org/2000/svg" viewBox="0 0 299.91 297.4">
  <defs>
    <style>
      .cls-1 {
        fill: #fff;
      }

      .cls-2 {
        fill: none;
        stroke: #231f20;
        stroke-miterlimit: 10;
        stroke-width: 6px;
      }

      .cls-3 {
        fill: #231f20;
      }
    </style>
  </defs>
  <g id="Layer_1-2" data-name="Layer 1">
    <path class="cls-2" d="M226.18,64.58h-6.08c-2.05-15.87-9.36-30.09-20.13-40.86-12.8-12.8-30.48-20.72-50.01-20.72-35.97,0-65.66,26.84-70.14,61.58h-6.08c-6.55,0-12.89,.89-18.9,2.55-11.94,3.31-22.61,9.66-31.12,18.17-12.8,12.8-20.72,30.48-20.72,50.02,0,32.52,21.95,59.91,51.84,68.18,6.01,1.66,12.35,2.55,18.9,2.55l-5.25-.71c5.94,.47,12.08,.71,15.49,.71H216.24c19.53,0,47.16-7.92,59.96-20.72,12.79-12.8,20.71-30.48,20.71-50.01,0-39.07-31.66-70.74-70.73-70.74Z"/>
    <g>
      <path class="cls-3" d="M149.95,295.9c-.35,0-.71-.04-1.08-.11-.14-.03-.27-.07-.4-.11l-.15-.04c-.16-.04-.32-.09-.48-.16-.15-.06-.29-.14-.44-.22l-.14-.08c-.13-.06-.25-.13-.37-.21-.24-.16-.47-.35-.7-.56l-.03-.02-.11-.1-37.58-37.58c-2.14-2.14-2.14-5.63,0-7.78,1.04-1.04,2.42-1.61,3.89-1.61s2.85,.57,3.89,1.61l28.2,28.2V104.53c0-3.03,2.47-5.5,5.5-5.5s5.5,2.47,5.5,5.5v172.59l28.2-28.2c1.04-1.04,2.42-1.61,3.89-1.61s2.85,.57,3.89,1.61c2.14,2.15,2.14,5.63,0,7.78l-37.66,37.66-.05,.04c-.23,.22-.46,.4-.71,.57-.12,.08-.24,.15-.37,.21l-.14,.08c-.14,.08-.28,.16-.43,.22-.16,.07-.32,.12-.49,.16l-.14,.04c-.13,.04-.26,.08-.4,.11-.36,.07-.72,.11-1.08,.11Z"/>
      <path class="cls-1" d="M149.95,100.53c2.21,0,4,1.79,4,4v176.21l30.76-30.76c.78-.78,1.81-1.17,2.83-1.17s2.05,.39,2.83,1.17c1.56,1.56,1.56,4.09,0,5.66l-37.59,37.58s-.04,.03-.05,.04c-.17,.17-.36,.32-.56,.46-.1,.07-.21,.12-.32,.17-.12,.07-.24,.14-.37,.19-.13,.06-.27,.09-.41,.13-.11,.03-.22,.08-.33,.1-.26,.05-.52,.08-.78,.08s-.53-.03-.78-.08c-.12-.02-.22-.07-.33-.1-.14-.04-.28-.07-.41-.13-.13-.05-.25-.13-.37-.19-.11-.06-.22-.11-.32-.17-.2-.13-.39-.29-.56-.46-.02-.02-.04-.03-.05-.04l-37.58-37.58c-1.56-1.56-1.56-4.09,0-5.66,.78-.78,1.8-1.17,2.83-1.17s2.05,.39,2.83,1.17l30.76,30.76V104.53c0-2.21,1.79-4,4-4m0-3c-3.86,0-7,3.14-7,7v168.97l-25.64-25.64c-1.32-1.32-3.08-2.05-4.95-2.05s-3.63,.73-4.95,2.05c-2.73,2.73-2.73,7.17,0,9.9l37.59,37.59,.16,.16,.07,.05c.27,.25,.55,.47,.83,.66,.22,.15,.42,.25,.53,.3l.08,.04c.13,.07,.34,.19,.6,.3,.27,.11,.51,.18,.66,.22l.06,.02c.13,.04,.33,.11,.59,.16,.46,.09,.92,.14,1.37,.14s.91-.05,1.37-.14c.26-.05,.46-.12,.58-.16l.08-.02c.15-.04,.39-.11,.66-.22,.27-.11,.48-.23,.6-.3l.05-.03c.14-.07,.33-.17,.55-.31,.3-.2,.59-.43,.87-.69,.06-.05,.12-.11,.19-.17l37.59-37.59c2.73-2.73,2.73-7.17,0-9.9-1.32-1.32-3.08-2.05-4.95-2.05s-3.63,.73-4.95,2.05l-25.64,25.64V104.53c0-3.86-3.14-7-7-7h0Z"/>
    </g>
  </g>
</svg>