<svg width="0" height="0" class="hidden">
  <symbol fill="none" xmlns="http://www.w3.org/2000/svg" viewBox="0 0 24 24" id="facebook">
    <path d="M19 3H5C3.895 3 3 3.895 3 5V19C3 20.105 3.895 21 5 21H12.621V14.039H10.278V11.314H12.621V9.309C12.621 6.985 14.042 5.718 16.116 5.718C16.815 5.716 17.513 5.752 18.208 5.823V8.253H16.78C15.65 8.253 15.43 8.787 15.43 9.575V11.31H18.13L17.779 14.035H15.414V21H19C20.105 21 21 20.105 21 19V5C21 3.895 20.105 3 19 3Z" fill="#202060"></path>
  </symbol>
  <symbol fill="none" xmlns="http://www.w3.org/2000/svg" viewBox="0 0 24 24" id="instagram">
    <path d="M8 3C5.239 3 3 5.239 3 8V16C3 18.761 5.239 21 8 21H16C18.761 21 21 18.761 21 16V8C21 5.239 18.761 3 16 3H8ZM18 5C18.552 5 19 5.448 19 6C19 6.552 18.552 7 18 7C17.448 7 17 6.552 17 6C17 5.448 17.448 5 18 5ZM12 7C14.761 7 17 9.239 17 12C17 14.761 14.761 17 12 17C9.239 17 7 14.761 7 12C7 9.239 9.239 7 12 7ZM12 9C11.2044 9 10.4413 9.31607 9.87868 9.87868C9.31607 10.4413 9 11.2044 9 12C9 12.7956 9.31607 13.5587 9.87868 14.1213C10.4413 14.6839 11.2044 15 12 15C12.7956 15 13.5587 14.6839 14.1213 14.1213C14.6839 13.5587 15 12.7956 15 12C15 11.2044 14.6839 10.4413 14.1213 9.87868C13.5587 9.31607 12.7956 9 12 9Z" fill="#202060"></path>
  </symbol>
  <symbol fill="none" xmlns="http://www.w3.org/2000/svg" viewBox="0 0 24 24" id="twitter">
    <path d="M22 3.99899C21.22 4.46199 19.655 5.09299 18.735 5.27499C18.708 5.28199 18.686 5.29099 18.66 5.29799C17.847 4.49599 16.733 3.99899 15.5 3.99899C13.015 3.99899 11 6.01399 11 8.49899C11 8.62999 10.989 8.87099 11 8.99899C7.647 8.99899 5.095 7.24299 3.265 4.99899C3.066 5.49899 2.979 6.28899 2.979 7.03099C2.979 8.43199 4.074 9.80799 5.779 10.661C5.465 10.742 5.119 10.8 4.759 10.8C4.178 10.8 3.563 10.647 3 10.183C3 10.2 3 10.216 3 10.234C3 12.192 5.078 13.525 6.926 13.896C6.551 14.117 5.795 14.139 5.426 14.139C5.166 14.139 4.246 14.02 4 13.974C4.514 15.579 6.368 16.481 8.135 16.513C6.753 17.597 5.794 17.999 2.964 17.999H2C3.788 19.145 6.065 20 8.347 20C15.777 20 20 14.337 20 8.99899C20 8.91299 19.998 8.73299 19.995 8.55199C19.995 8.53399 20 8.51699 20 8.49899C20 8.47199 19.992 8.44599 19.992 8.41899C19.989 8.28299 19.986 8.15599 19.983 8.08999C20.773 7.51999 21.458 6.80899 22 5.99899C21.275 6.32099 20.497 6.53699 19.68 6.63499C20.514 6.13499 21.699 4.94299 22 3.99899Z" fill="#202060"></path>
  </symbol>
  <symbol fill="none" xmlns="http://www.w3.org/2000/svg" viewBox="0 0 24 24" id="whatsapp">
    <path d="M19.077 4.928C17.191 3.041 14.683 2.001 12.011 2C6.505 2 2.024 6.479 2.022 11.985C2.021 13.745 2.481 15.463 3.355 16.977L2 22L7.233 20.763C8.692 21.559 10.334 21.978 12.006 21.979H12.01C17.515 21.979 21.996 17.499 21.999 11.994C22.001 9.325 20.963 6.816 19.077 4.928ZM16.898 15.554C16.69 16.137 15.671 16.699 15.213 16.74C14.755 16.782 14.326 16.947 12.218 16.116C9.681 15.116 8.079 12.515 7.955 12.349C7.83 12.182 6.936 10.996 6.936 9.768C6.936 8.54 7.581 7.936 7.81 7.687C8.039 7.437 8.309 7.375 8.476 7.375C8.642 7.375 8.809 7.375 8.954 7.381C9.132 7.388 9.329 7.397 9.516 7.812C9.738 8.306 10.223 9.54 10.285 9.665C10.347 9.79 10.389 9.936 10.306 10.102C10.223 10.268 10.181 10.372 10.057 10.518C9.932 10.664 9.795 10.843 9.683 10.955C9.558 11.079 9.428 11.215 9.573 11.464C9.719 11.714 10.219 12.531 10.961 13.192C11.915 14.042 12.718 14.305 12.968 14.431C13.218 14.556 13.363 14.535 13.509 14.368C13.655 14.202 14.133 13.64 14.299 13.39C14.465 13.14 14.632 13.182 14.861 13.265C15.09 13.348 16.317 13.952 16.566 14.077C16.816 14.202 16.982 14.264 17.044 14.368C17.106 14.471 17.106 14.971 16.898 15.554Z" fill="#202060"></path>
  </symbol>
</svg>